<svg width="1024" height="1024" version="1.1" xmlns="http://www.w3.org/2000/svg" desc="Created with imagetracer.js version 1.2.6" ><path fill="rgb(0,0,0)" stroke="rgb(0,0,0)" stroke-width="1" opacity="0" d="M 0 0 L 1024 0 L 1024 1024 L 0 1024 L 0 0 Z M 510 306 L 507 307 L 505 307 L 499 310 Q 496 309 497 312 L 495 312 L 491 317 Q 492 319 489 318 L 487 323 L 484 324 L 482 329 Q 483 331 480 330 L 476 338 L 476 341 L 471 347 Q 472 351 469 350 L 468 353 Q 469 356 467 355 L 462 364 L 459 365 L 457 373 L 454 375 L 454 378 L 451 378 L 451 383 L 450 383 L 448 387 Q 449 389 446 388 L 444 392 Q 445 394 443 393 L 443 395 L 440 400 Q 441 402 439 401 Q 436 402 437 406 L 426 421 Q 427 425 424 424 L 423 428 Q 424 430 421 429 L 421 432 L 419 432 L 419 435 L 416 438 L 412 447 L 410 448 L 406 455 Q 407 459 403 457 Q 403 463 399 467 Q 400 470 398 469 L 390 481 Q 391 483 388 482 L 387 488 L 377 503 Q 378 505 375 504 L 374 509 L 371 510 L 369 518 L 365 522 L 364 526 L 359 533 Q 360 535 357 534 L 355 541 L 348 550 L 343 561 L 340 562 Q 340 568 335 572 Q 336 574 333 573 L 333 577 L 331 578 L 322 595 L 319 596 L 319 600 L 314 605 L 314 608 L 310 611 L 311 613 L 305 621 L 305 624 L 300 627 Q 301 632 297 634 Q 298 637 295 636 L 289 648 L 291 649 L 306 649 L 307 650 L 376 649 L 378 649 L 407 649 L 408 650 L 437 650 L 443 648 L 448 648 L 454 645 L 457 646 L 459 644 L 467 642 L 478 636 L 484 631 L 486 631 L 488 628 Q 492 629 491 627 L 502 618 L 504 615 L 509 611 Q 508 606 511 607 L 514 602 L 519 598 L 520 596 Q 519 591 522 592 L 523 589 Q 522 586 526 587 L 528 580 L 531 578 Q 530 574 533 573 L 534 573 L 534 569 L 536 569 L 539 561 L 543 557 Q 542 554 545 555 L 545 551 L 548 550 Q 547 545 550 546 L 551 541 L 554 540 Q 553 535 556 536 L 558 531 L 561 532 Q 561 540 567 544 Q 566 547 569 546 L 576 559 Q 575 562 578 561 L 582 568 L 582 571 L 588 580 L 582 594 L 578 599 Q 579 601 576 600 L 574 607 L 571 608 L 569 616 L 560 627 L 560 630 L 549 646 Q 550 649 547 648 L 543 658 L 540 659 Q 539 666 534 670 L 534 672 L 530 674 L 532 674 L 523 689 L 523 691 L 520 692 L 519 696 Q 520 698 517 697 L 516 702 L 513 703 L 513 706 L 507 715 L 509 718 L 529 718 Q 528 715 532 716 L 531 714 L 534 707 L 538 703 L 540 697 L 543 695 L 544 693 Q 543 689 546 690 Q 545 686 549 685 Q 548 681 551 682 L 555 674 Q 554 671 557 672 L 559 668 L 560 668 L 560 664 L 563 664 L 563 659 L 566 658 Q 565 652 569 654 L 569 651 L 572 646 Q 571 643 574 644 L 574 641 L 577 641 L 576 640 L 577 636 L 581 636 L 580 633 L 582 633 Q 584 632 582 631 Q 581 626 584 627 L 589 618 Q 588 615 591 616 L 598 601 L 602 599 L 604 608 L 613 619 L 616 627 L 626 641 L 630 649 L 633 650 L 632 652 L 636 652 L 637 649 L 735 649 L 735 646 L 732 644 L 729 639 Q 730 635 727 636 L 720 624 Q 721 621 718 622 L 718 619 L 712 610 Q 713 607 711 608 Q 708 607 709 604 L 702 595 L 703 592 L 701 591 L 696 585 Q 697 581 695 582 L 686 567 Q 687 564 685 565 L 671 543 Q 672 540 669 541 L 669 537 L 668 537 L 659 522 L 654 516 L 653 512 L 658 504 Q 657 501 660 502 L 660 499 L 668 488 L 671 481 L 674 479 L 676 473 L 679 471 L 681 465 L 684 463 L 687 455 L 691 450 Q 690 447 693 448 L 695 442 L 708 422 Q 707 419 710 420 L 716 410 L 716 407 Q 720 408 719 406 L 719 404 L 725 394 Q 724 391 727 392 L 727 389 L 729 389 L 735 377 L 729 375 L 727 376 L 654 376 L 653 375 L 597 375 L 592 374 L 588 376 L 586 375 Q 581 379 572 378 L 569 375 L 570 373 L 567 372 L 563 367 L 563 363 L 559 360 L 558 358 Q 559 354 556 355 L 549 344 L 549 341 L 543 334 L 543 331 Q 535 323 532 313 L 529 312 L 527 309 Q 524 307 517 308 L 515 306 L 510 306 Z " /><path fill="rgb(0,0,0)" stroke="rgb(0,0,0)" stroke-width="1" opacity="0" d="M 511 325 L 515 326.5 L 515.5 328 L 516.5 327 L 520 330.5 L 520 332.5 L 524 336.5 L 524 340 Q 527 338.8 526 342.5 L 529.5 348 Q 531.8 347.3 531 349.5 L 537 359.5 L 536.5 361 Q 540.3 359.8 539 363.5 L 543 369.5 L 543 372 L 547 374 L 547 377.5 L 550 379 L 552 384.5 L 549.5 388 L 546.5 388 Q 544.6 391.6 540 391 L 537.5 395 L 534 396 L 532.5 399 L 528 400 Q 529.1 402.7 526.5 402 L 517.5 413 L 515 414.5 L 515 416.5 L 506 427.5 L 503 435 Q 500 433.8 501 437.5 L 497 440.5 L 497 443 Q 494 441.8 495 445.5 L 481 468.5 L 481 471 L 478 472.5 Q 477.2 478.7 473 481.5 L 473 484 L 469 486.5 L 467 494 Q 464.3 492.9 465 495.5 L 458 505.5 L 458.5 507 Q 452.8 505.2 455 511.5 L 450 517.5 L 445 530 L 442 531.5 Q 444.5 533 441 534.5 L 435.5 544 Q 432.5 543.1 434 547.5 L 423 562.5 L 416 578 Q 413.3 576.9 414 579.5 L 405 593.5 L 404 597.5 L 397 605.5 L 390 620 Q 387.3 618.9 388 621.5 L 387 625 Q 384 623.8 385 627.5 L 382.5 631 L 374.5 630 L 373.5 631 L 323.5 631 L 322 627 Q 326.1 628.7 325 624.5 L 331 616.5 L 331 613 Q 334 614.3 333 610.5 L 336 609 L 339.5 601 Q 341.8 601.8 341 599.5 L 342 596 L 345 594.5 L 345 592.5 Q 344.3 589.9 347 591 L 347 588.5 L 357.5 572 Q 360.1 572.8 359 569.5 L 363.5 564 Q 365.8 564.8 365 562.5 L 364 560.5 L 365 558 L 367 558 Q 365.5 554.2 368.5 555 L 373 546 Q 375.7 547.1 375 544.5 L 376 541 Q 379 542.3 378 538.5 Q 381.8 537.3 381 533 Q 383.7 534.1 383 531.5 L 390 520 L 392 520 L 392 515 L 393.5 515 Q 395.8 514.3 395 510.5 L 398 507.5 L 398 505 Q 401 506.3 400 502.5 L 404 496 Q 407.3 497.3 406 492.5 Q 412.4 486.1 415 477 L 417 477 L 417 474 Q 420 475.3 419 471.5 L 421 468 Q 424 469.3 423 465.5 Q 426.2 463.5 426 459 Q 429.3 460.3 428 455.5 L 431 454 L 434 449.5 L 434 446 Q 436.7 447.1 436 444.5 L 440.5 436 Q 442.8 436.8 442 434.5 L 443.5 431 L 446 429.5 L 445 427.5 L 446 425 L 448 425 L 448 422 Q 451 423.3 450 419.5 L 453 418 L 459 403 Q 461.7 404.1 461 401.5 L 465 397.5 Q 464.3 393.8 466.5 393 L 468 393 L 468 389 L 470 389 L 470 385 Q 473 386.3 472 382.5 L 475 381 L 480 369 L 484 367 Q 482.8 361.7 486 362.5 L 486 359.5 L 489 356.5 L 491 350 L 494 348.5 L 500 336 L 503 334.5 L 503 332.5 Q 502.2 329.9 505.5 331 L 511 327 L 511 325 Z " /><path fill="rgb(0,0,0)" stroke="rgb(0,0,0)" stroke-width="1" opacity="0" d="M 593 393 L 614.5 393 L 619 395.5 L 613.5 404 Q 610.5 403.1 612 407.5 L 607.5 414 L 606 414.5 Q 608.5 416 605 417.5 Q 605.7 420.1 603 419 L 603 421.5 L 600.5 425 L 597 422.5 L 595 414 L 592 412.5 L 582 396.5 L 586.5 394 L 593 395 L 593 393 Z " /><path fill="rgb(0,0,0)" stroke="rgb(0,0,0)" stroke-width="1" opacity="0" d="M 644.5 393 L 701.5 393 L 702 397 Q 699.3 395.9 700 398.5 L 699 401 Q 696.3 399.9 697 402.5 L 691 411.5 L 690 415.5 L 686 419.5 L 684 425.5 L 669.5 447 Q 666.9 446.2 668 449.5 L 661 460.5 L 659 466.5 L 655 470.5 L 653 477 Q 650.3 475.9 651 478.5 L 644 488.5 L 642 495 Q 639.3 493.9 640 496.5 L 617 533.5 L 617 537 Q 614 535.8 615 539.5 L 604 554.5 Q 604.6 559.6 601.5 561 Q 597.5 561.5 597 558.5 L 587 543.5 L 585 537.5 L 579 530.5 L 575.5 522 Q 572.5 522.9 574 518.5 L 573 516 Q 568.5 517.8 570 512.5 L 572.5 508 Q 575.5 508.9 574 504.5 Q 577.8 503.3 577 499 Q 580.3 500.3 579 495.5 L 586.5 484 L 589 482.5 L 590 477 L 593 475.5 L 594 472 Q 597.3 473.3 596 468.5 L 602 460.5 Q 601.3 456.8 603.5 456 Q 606.1 456.8 605 453.5 L 608.5 448 L 611 446.5 Q 611.6 438.6 617 435.5 L 617 433.5 Q 616.2 430.5 620 432 L 620 429.5 L 631.5 410 Q 633.8 410.8 633 408.5 L 635 403 L 640 401 L 639 398.5 L 643 395.5 L 644.5 393 Z " /><path fill="rgb(0,0,0)" stroke="rgb(0,0,0)" stroke-width="1" opacity="0" d="M 560.5 402 Q 565.3 400.3 564 404.5 Q 569.4 407.9 570 415 Q 572.7 413.9 572 416.5 Q 575.9 418.6 575 424 L 577 424 L 577 428 Q 581.1 426.3 580 430.5 L 584.5 438 Q 587.1 437.2 586 440.5 L 588 445.5 L 585 452 Q 581.7 450.7 583 455.5 L 579 462 L 576 463.5 L 573 467.5 Q 575.5 469 572 470.5 Q 572.8 476.3 568.5 477 L 567 477 L 567 480 Q 564.3 478.9 565 481.5 L 564 483.5 Q 566.5 485 563 486.5 L 561 489.5 L 560 492 L 555 489.5 L 552.5 483 L 551 483 Q 552.5 479.2 549.5 480 L 542 467 Q 539 468.3 540 464.5 L 525 440.5 L 524 433.5 L 528 431 L 539.5 417 L 543 415.5 Q 542.3 413.3 544.5 414 L 546 411 L 550 411 L 552 407 L 554.5 407 L 560.5 402 Z " /><path fill="rgb(0,0,0)" stroke="rgb(0,0,0)" stroke-width="1" opacity="0" d="M 511 455 Q 513.7 453.9 513 456.5 L 514 459 Q 516.7 457.9 516 460.5 L 522 470.5 L 522 473 Q 524.7 471.9 524 474.5 L 525 478 L 529 480.5 L 531 486.5 L 538 495.5 L 547 513.5 L 540.5 524 Q 537.5 523.1 539 527.5 L 535 534 Q 531.7 532.7 533 537.5 L 529.5 542 Q 527.3 541.3 528 543.5 L 521.5 555 L 519 556.5 L 519 559.5 Q 516 558.5 517 563.5 L 514 565 L 514 568.5 Q 509.8 571.4 509 577 Q 506 575.8 507 579.5 L 495 598 Q 492.3 596.9 493 599.5 L 490 601 L 484.5 608 Q 481.9 607.3 483 610 L 480.5 610 L 479 613 Q 470.2 615.2 464.5 622 L 460.5 623 Q 459 620.5 457.5 624 L 450.5 627 L 447.5 626 L 441.5 629 Q 435.4 628.4 432.5 631 L 427.5 630 L 424.5 631 L 422.5 631 L 406.5 631 L 406 628.5 L 410.5 621 L 413 619.5 L 413 616.5 L 425.5 597 L 427 597 L 427 593 L 428.5 593 L 432.5 585 Q 435.1 585.8 434 582.5 L 435 580 L 437 580 L 437 576 L 438.5 576 Q 442 574.7 441 570 L 443 570 L 443 566 L 444.5 566 L 445.5 563 Q 447.8 563.8 447 561.5 Q 450.6 559.6 450 555 Q 452.7 556.1 452 553.5 L 456 547.5 L 456 545 L 459 543.5 L 460 539 Q 463 540.3 462 536.5 L 467 529 Q 469.7 530.1 469 527.5 L 471 523.5 L 474 519.5 L 474 517.5 L 475.5 515 Q 478.5 515.7 477 512 L 479 512 L 479 507 Q 482.7 508.5 482 505.5 L 485 499 L 488 497.5 Q 487.3 493.8 489.5 493 L 491 493 L 491 489 Q 494 490.3 493 486.5 L 494 483 L 496 483 Q 494.9 480.3 497.5 481 Q 500 479.8 499 476 Q 502.3 477.3 501 472.5 L 502 470 Q 504.7 471.1 504 468.5 L 505 465 Q 507.7 466.1 507 463.5 L 508 460 L 511 458.5 L 511 455 Z " /><path fill="rgb(0,0,0)" stroke="rgb(0,0,0)" stroke-width="1" opacity="0" d="M 641.5 532 L 644 533.5 Q 642.5 537.9 645.5 537 Q 649.9 539.1 649 545 L 652 546.5 Q 655.6 548.4 655 554.5 L 657.5 557 Q 659.8 556.3 659 558.5 L 662 565.5 L 676 585.5 L 676 588.5 L 682 595.5 L 682 599 Q 684.7 597.9 684 600.5 L 688 608 L 690 608 L 690 612 Q 692.7 610.9 692 613.5 L 698.5 625 L 701 626.5 L 703 631 Q 697 629 686.5 630 L 685.5 631 L 646.5 631 L 640 628.5 L 637 621 L 634 619.5 L 628 610.5 L 628 607.5 L 624 603.5 L 622 597 L 619 595.5 L 614.5 586 Q 611.5 586.9 613 582.5 L 612 580.5 L 613 577 Q 616 578.3 615 574.5 Q 618 573.3 617 569 Q 619.7 570.1 619 567.5 L 620 564 L 622 564 L 622 560 L 623.5 560 L 633 544 L 635 544 L 635 540 Q 638 541.3 637 537.5 L 641.5 532 Z " /><path fill="rgb(212,214,213)" stroke="rgb(212,214,213)" stroke-width="1" opacity="0.9647058823529412" d="M 509.5 306 L 514.5 306 L 516.5 308 Q 523.6 307.3 527 309 L 528.5 312 L 532 313 Q 535.3 323.5 543 330.5 L 543 333.5 L 549 340.5 L 549 343.5 L 556 355 Q 559 353.8 558 357.5 L 559 360 L 563 362.5 L 563 366.5 L 567 372 L 570 372.5 L 569 374.5 L 571.5 378 Q 581 379.1 585.5 375 L 587.5 376 L 591.5 374 L 596.5 375 L 652.5 375 L 653.5 376 L 726.5 376 L 728.5 375 L 735 376.5 L 729 389 L 727 389 L 727 392 Q 724.3 390.9 725 393.5 L 719 403.5 L 719 405.5 Q 719.7 408.5 716 407 L 716 409.5 L 709.5 420 Q 707.3 419.3 708 421.5 L 695 441.5 L 693 448 Q 690.3 446.9 691 449.5 L 687 454.5 L 684 463 L 681 464.5 L 679 471 L 676 472.5 L 674 479 L 671 480.5 L 668 487.5 L 660 498.5 L 660 502 Q 657.3 500.9 658 503.5 L 653 511.5 L 654 515.5 L 659 521.5 L 667.5 537 L 669 537 L 669 541 Q 671.7 539.9 671 542.5 L 684.5 565 Q 686.8 564.3 686 566.5 L 694.5 582 Q 697.1 581.2 696 584.5 L 700.5 591 L 703 591.5 L 702 594.5 L 709 603.5 Q 708.3 607.3 710.5 608 Q 712.8 607.3 712 609.5 L 718 618.5 L 718 622 Q 720.7 620.9 720 623.5 L 727 636 Q 730 634.8 729 638.5 L 732 644 L 735 645.5 L 734.5 649 L 636.5 649 L 636 652 L 632 652 L 633 649.5 L 630 649 L 626 640.5 L 616 626.5 L 613 618.5 L 604 607.5 L 602 599 L 598 600.5 L 591 616 Q 588.3 614.9 589 617.5 L 583.5 627 Q 580.5 626.1 582 630.5 Q 584.3 631.8 581.5 633 L 580 632.5 L 581 635.5 L 577 636 L 576 639.5 L 576.5 641 L 574 641 L 574 644 Q 571.3 642.9 572 645.5 L 569 650.5 L 569 654 Q 564.5 652.3 566 657.5 L 563 659 L 563 664 L 560 664 L 560 668 L 558.5 668 L 557 672 Q 554.3 670.9 555 673.5 L 550.5 682 Q 547.9 681.2 549 684.5 Q 545.2 685.8 546 690 Q 543 688.8 544 692.5 L 543 695 L 540 696.5 L 538 702.5 L 534 706.5 L 531 713.5 L 532 716 Q 527.8 715 528.5 718 L 508.5 718 L 507 714.5 L 513 705.5 L 513 703 L 516 701.5 L 517 697 Q 519.7 698.1 519 695.5 L 520 692 L 523 690.5 L 523 688.5 L 532 674 L 530 673.5 L 534 672 L 534 669.5 Q 539.4 666 540 659 L 543 657.5 L 547 648 Q 550 649.3 549 645.5 L 560 629.5 L 560 626.5 L 569 615.5 L 571 608 L 574 606.5 L 576 600 Q 578.7 601.1 578 598.5 L 582 593.5 L 588 579.5 L 582 570.5 L 582 567.5 L 578 561 Q 575 562.3 576 558.5 L 569 546 Q 566 547.3 567 543.5 Q 561.3 540 561 532 L 557.5 531 L 556 536 Q 552.7 534.7 554 539.5 L 551 541 L 550 546 Q 546.7 544.7 548 549.5 L 545 551 L 545 555 Q 542.3 553.9 543 556.5 L 539 560.5 L 535.5 569 L 534 569 L 534 573 L 532.5 573 Q 530 574.2 531 578 L 528 579.5 L 526 587 Q 522.2 585.5 523 588.5 L 522 592 Q 518.7 590.7 520 595.5 L 519 598 L 514 601.5 L 511 607 Q 507.7 605.7 509 610.5 L 504 614.5 L 501.5 618 L 491 626.5 Q 491.9 629.5 487.5 628 L 486 631 L 483.5 631 L 477.5 636 L 466.5 642 L 458.5 644 L 456.5 646 L 453.5 645 L 447.5 648 L 442.5 648 L 436.5 650 L 407.5 650 L 406.5 649 L 377.5 649 L 375.5 649 L 306.5 650 L 305.5 649 L 290.5 649 L 289 647.5 L 295 636 Q 298 637.3 297 633.5 Q 300.6 631.6 300 627 L 305 623.5 L 305 620.5 L 311 612.5 L 310 610.5 L 314 607.5 L 314 604.5 L 319 599.5 L 319 596 L 322 594.5 L 330.5 578 L 333 576.5 L 333 573 Q 335.7 574.1 335 571.5 Q 339.6 568.2 340 562 L 343 560.5 L 348 549.5 L 355 540.5 L 357 534 Q 359.7 535.1 359 532.5 L 364 525.5 L 365 521.5 L 369 517.5 L 371 510 L 374 508.5 L 375 504 Q 377.7 505.1 377 502.5 L 387 487.5 L 388 482 Q 390.7 483.1 390 480.5 L 397.5 469 Q 400.1 469.8 399 466.5 Q 403 463.3 403 457 Q 407.1 458.7 406 454.5 L 409.5 448 L 412 446.5 L 416 437.5 L 419 434.5 L 419 432 L 421 432 L 421 429 Q 423.7 430.1 423 427.5 L 424 424 Q 427.3 425.3 426 420.5 L 437 405.5 Q 436.3 401.8 438.5 401 Q 440.8 401.8 440 399.5 L 443 394.5 L 442.5 393 Q 444.8 393.8 444 391.5 L 446 388 Q 448.7 389.1 448 386.5 L 449.5 383 L 451 383 L 451 378 L 454 378 L 454 374.5 L 457 373 L 459 365 L 462 363.5 L 466.5 355 Q 469.1 355.8 468 352.5 L 469 350 Q 472.3 351.3 471 346.5 L 476 340.5 L 476 337.5 L 480 330 Q 482.7 331.1 482 328.5 L 484 324 L 487 322.5 L 489 318 Q 491.7 319.1 491 316.5 L 494.5 312 L 497 312 Q 495.9 309.3 498.5 310 L 504.5 307 L 506.5 307 L 509.5 306 Z M 511 325 L 511 327 L 506 331 Q 502 330 503 333 L 503 335 L 500 336 L 494 349 L 491 350 L 489 357 L 486 360 L 486 363 Q 483 362 484 367 L 480 369 L 475 381 L 472 383 Q 473 386 470 385 L 470 389 L 468 389 L 468 393 L 467 393 Q 464 394 465 398 L 461 402 Q 462 404 459 403 L 453 418 L 450 420 Q 451 423 448 422 L 448 425 L 446 425 L 445 428 L 446 430 L 444 431 L 442 435 Q 443 437 441 436 L 436 445 Q 437 447 434 446 L 434 450 L 431 454 L 428 456 Q 429 460 426 459 Q 426 464 423 466 Q 424 469 421 468 L 419 472 Q 420 475 417 474 L 417 477 L 415 477 Q 412 486 406 493 Q 407 497 404 496 L 400 503 Q 401 506 398 505 L 398 508 L 395 511 Q 396 514 394 515 L 392 515 L 392 520 L 390 520 L 383 532 Q 384 534 381 533 Q 382 537 378 539 Q 379 542 376 541 L 375 545 Q 376 547 373 546 L 369 555 Q 366 554 367 558 L 365 558 L 364 561 L 365 563 Q 366 565 364 564 L 359 570 Q 360 573 358 572 L 347 589 L 347 591 Q 344 590 345 593 L 345 595 L 342 596 L 341 600 Q 342 602 340 601 L 336 609 L 333 611 Q 334 614 331 613 L 331 617 L 325 625 Q 326 629 322 627 L 324 631 L 374 631 L 375 630 L 383 631 L 385 628 Q 384 624 387 625 L 388 622 Q 387 619 390 620 L 397 606 L 404 598 L 405 594 L 414 580 Q 413 577 416 578 L 423 563 L 434 548 Q 432 543 436 544 L 441 535 Q 444 533 442 532 L 445 530 L 450 518 L 455 512 Q 453 505 459 507 L 458 506 L 465 496 Q 464 493 467 494 L 469 487 L 473 484 L 473 482 Q 477 479 478 473 L 481 471 L 481 469 L 495 446 Q 494 442 497 443 L 497 441 L 501 438 Q 500 434 503 435 L 506 428 L 515 417 L 515 415 L 518 413 L 527 402 Q 529 403 528 400 L 533 399 L 534 396 L 538 395 L 540 391 Q 545 392 547 388 L 550 388 L 552 385 L 550 379 L 547 378 L 547 374 L 543 372 L 543 370 L 539 364 Q 540 360 537 361 L 537 360 L 531 350 Q 532 347 530 348 L 526 343 Q 527 339 524 340 L 524 337 L 520 333 L 520 331 L 517 327 L 516 328 L 515 327 L 511 325 Z M 593 393 L 593 395 L 587 394 L 582 397 L 592 413 L 595 414 L 597 423 L 601 425 L 603 422 L 603 419 Q 606 420 605 418 Q 608 416 606 415 L 608 414 L 612 408 Q 610 403 614 404 L 619 396 L 615 393 L 593 393 Z M 645 393 L 643 396 L 639 399 L 640 401 L 635 403 L 633 409 Q 634 411 632 410 L 620 430 L 620 432 Q 616 430 617 434 L 617 436 Q 612 439 611 447 L 609 448 L 605 454 Q 606 457 604 456 Q 601 457 602 461 L 596 469 Q 597 473 594 472 L 593 476 L 590 477 L 589 483 L 587 484 L 579 496 Q 580 500 577 499 Q 578 503 574 505 Q 575 509 573 508 L 570 513 Q 569 518 573 516 L 574 519 Q 572 523 576 522 L 579 531 L 585 538 L 587 544 L 597 559 Q 597 562 602 561 Q 605 560 604 555 L 615 540 Q 614 536 617 537 L 617 534 L 640 497 Q 639 494 642 495 L 644 489 L 651 479 Q 650 476 653 477 L 655 471 L 659 467 L 661 461 L 668 450 Q 667 446 670 447 L 684 426 L 686 420 L 690 416 L 691 412 L 697 403 Q 696 400 699 401 L 700 399 Q 699 396 702 397 L 702 393 L 645 393 Z M 561 402 L 558 404 L 558 406 Q 556 404 555 407 L 552 407 L 550 411 L 546 411 L 545 414 Q 542 413 543 416 L 540 417 L 528 431 L 524 434 L 525 441 L 540 465 Q 539 468 542 467 L 550 480 Q 552 479 551 483 L 553 483 L 555 490 L 560 492 L 561 490 L 563 487 Q 566 485 564 484 L 565 482 Q 564 479 567 480 L 567 477 L 569 477 Q 573 476 572 471 Q 575 469 573 468 L 576 464 L 579 462 L 583 456 Q 582 451 585 452 L 588 446 L 586 441 Q 587 437 585 438 L 580 431 Q 581 426 577 428 L 577 424 L 575 424 Q 576 419 572 417 Q 573 414 570 415 Q 569 408 564 405 Q 565 400 561 402 Z M 511 455 L 511 459 L 508 460 L 507 464 Q 508 466 505 465 L 504 469 Q 505 471 502 470 L 501 473 Q 502 477 499 476 Q 500 480 498 481 Q 495 480 496 483 L 494 483 L 493 487 Q 494 490 491 489 L 491 493 L 490 493 Q 487 494 488 498 L 485 499 L 482 506 Q 483 508 479 507 L 479 512 L 477 512 Q 478 516 476 515 L 474 518 L 474 520 L 471 524 L 469 528 Q 470 530 467 529 L 462 537 Q 463 540 460 539 L 459 544 L 456 545 L 456 548 L 452 554 Q 453 556 450 555 Q 451 560 447 562 Q 448 564 446 563 L 445 566 L 443 566 L 443 570 L 441 570 Q 442 575 439 576 L 437 576 L 437 580 L 435 580 L 434 583 Q 435 586 433 585 L 429 593 L 427 593 L 427 597 L 426 597 L 413 617 L 413 620 L 411 621 L 406 629 L 407 631 L 423 631 L 425 631 L 428 630 L 433 631 Q 435 628 442 629 L 448 626 L 451 627 L 458 624 Q 459 620 461 623 L 465 622 Q 470 615 479 613 L 481 610 L 483 610 Q 482 607 485 608 L 490 601 L 493 600 Q 492 597 495 598 L 507 580 Q 506 576 509 577 Q 510 571 514 569 L 514 565 L 517 564 Q 516 559 519 560 L 519 557 L 522 555 L 528 544 Q 527 541 530 542 L 533 538 Q 532 533 535 534 L 539 528 Q 537 523 541 524 L 547 514 L 538 496 L 531 487 L 529 481 L 525 478 L 524 475 Q 525 472 522 473 L 522 471 L 516 461 Q 517 458 514 459 L 513 457 Q 514 454 511 455 Z M 642 532 L 637 538 Q 638 541 635 540 L 635 544 L 633 544 L 624 560 L 622 560 L 622 564 L 620 564 L 619 568 Q 620 570 617 569 Q 618 573 615 575 Q 616 578 613 577 L 612 581 L 613 583 Q 611 587 615 586 L 619 596 L 622 597 L 624 604 L 628 608 L 628 611 L 634 620 L 637 621 L 640 629 L 647 631 L 686 631 L 687 630 Q 697 629 703 631 L 701 627 L 699 625 L 692 614 Q 693 611 690 612 L 690 608 L 688 608 L 684 601 Q 685 598 682 599 L 682 596 L 676 589 L 676 586 L 662 566 L 659 559 Q 660 556 658 557 L 655 555 Q 656 548 652 547 L 649 545 Q 650 539 646 537 Q 642 538 644 534 L 642 532 Z " /></svg>