<svg width="1024" height="1024" version="1.1" xmlns="http://www.w3.org/2000/svg" desc="Created with imagetracer.js version 1.2.6" ><path fill="rgb(0,0,0)" stroke="rgb(0,0,0)" stroke-width="1" opacity="0" d="M 0 0 L 1024 0 L 1024 1024 L 0 1024 L 0 0 Z M 506 307 L 497 311 L 490 318 L 479 334 L 456 374 L 409 450 L 406 457 L 387 486 L 385 492 L 380 498 L 319 600 L 312 609 L 312 611 L 288 650 L 295 650 L 296 649 L 425 649 L 426 650 L 442 649 L 461 644 L 476 637 L 494 625 L 495 623 L 500 619 L 513 604 L 526 585 L 556 533 Q 555 528 560 530 Q 572 556 589 579 L 589 582 L 586 585 L 581 596 Q 556 631 535 671 L 530 677 L 525 687 L 520 693 L 508 713 L 507 717 L 509 718 Q 515 716 517 719 Q 523 720 527 718 L 539 701 L 566 657 L 571 646 L 581 632 L 582 628 L 595 607 L 597 601 L 601 598 L 630 648 L 633 649 L 728 649 L 731 650 L 733 650 L 735 649 L 716 616 L 684 566 L 675 549 L 653 515 Q 652 509 655 507 L 674 478 L 699 435 L 703 431 L 715 409 L 729 389 L 735 377 Q 737 375 735 374 L 730 375 L 589 375 L 578 378 L 572 378 L 563 367 L 533 316 Q 528 310 520 307 L 506 307 Z " /><path fill="rgb(0,0,0)" stroke="rgb(0,0,0)" stroke-width="1" opacity="0" d="M 510.5 325 Q 518.4 324.1 520 329.5 L 536 358.5 L 551 381.5 L 552 387 L 536.5 395 L 514 416.5 L 492 450.5 L 382.5 631 L 321.5 631 L 321 629.5 L 395 512.5 L 412 482.5 L 415 479.5 L 419 470.5 L 425 462.5 L 427 456.5 L 437 442.5 L 470 385.5 L 505.5 329 L 510.5 325 Z " /><path fill="rgb(0,0,0)" stroke="rgb(0,0,0)" stroke-width="1" opacity="0" d="M 699.5 392 Q 704.8 390.3 703 395.5 L 669 447.5 L 663 459.5 L 601.5 561 L 597 560 L 571 517.5 L 570 510.5 L 631 409.5 L 643.5 393 L 698.5 393 L 699.5 392 Z " /><path fill="rgb(0,0,0)" stroke="rgb(0,0,0)" stroke-width="1" opacity="0" d="M 591.5 393 L 618.5 393 L 619 395.5 L 603 422.5 L 599.5 426 L 597 423.5 L 594 415.5 L 583 400.5 L 582 396.5 L 584.5 394 Q 590 395.5 591.5 393 Z " /><path fill="rgb(0,0,0)" stroke="rgb(0,0,0)" stroke-width="1" opacity="0" d="M 560.5 402 Q 564.3 401.3 565 403.5 L 583 435.5 L 586 438.5 Q 588.7 440.8 588 446.5 L 569 476.5 L 561 492 Q 557.2 493 556 490.5 L 528 446.5 L 523 437.5 L 523 434.5 Q 527.5 432.1 528 427 L 534 422.5 L 539.5 416 L 560.5 402 Z " /><path fill="rgb(0,0,0)" stroke="rgb(0,0,0)" stroke-width="1" opacity="0" d="M 511.5 455 Q 514.8 453.9 514 456.5 L 543 503.5 L 547 514.5 L 505 583.5 L 486.5 607 Q 471 621 448.5 628 L 431.5 631 L 405.5 632 L 404 629.5 L 419 607.5 L 430 587.5 L 435 581.5 L 440 571.5 L 475 516.5 L 478 509.5 L 485 500.5 L 502 470.5 L 506 466.5 L 511.5 455 Z " /><path fill="rgb(0,0,0)" stroke="rgb(0,0,0)" stroke-width="1" opacity="0" d="M 641.5 530 L 693 615.5 L 704 630.5 L 702.5 632 L 685.5 632 L 684.5 631 L 643.5 631 L 638 626.5 L 620 595.5 L 612 584.5 L 611 579.5 L 641.5 530 Z " /><path fill="rgb(41,39,40)" stroke="rgb(41,39,40)" stroke-width="1" opacity="0.9529411764705882" d="M 505.5 307 L 519.5 307 Q 528 309.5 533 315.5 L 563 366.5 L 571.5 378 L 577.5 378 L 588.5 375 L 729.5 375 L 734.5 374 Q 737.3 375.3 735 376.5 L 729 388.5 L 715 408.5 L 703 430.5 L 699 434.5 L 674 477.5 L 655 506.5 Q 652.3 508.8 653 514.5 L 675 548.5 L 684 565.5 L 716 615.5 L 735 648.5 L 732.5 650 L 730.5 650 L 727.5 649 L 632.5 649 L 630 648 L 600.5 598 L 597 600.5 L 595 606.5 L 582 627.5 L 581 631.5 L 571 645.5 L 566 656.5 L 539 700.5 L 526.5 718 Q 523.3 720.3 516.5 719 Q 514.8 716.2 508.5 718 L 507 716.5 L 508 712.5 L 520 692.5 L 525 686.5 L 530 676.5 L 535 670.5 Q 556.4 631.4 581 595.5 L 586 584.5 L 589 581.5 L 589 578.5 Q 572.4 556.1 559.5 530 Q 554.7 528.3 556 532.5 L 526 584.5 L 513 603.5 L 499.5 619 L 495 622.5 L 493.5 625 L 475.5 637 L 460.5 644 L 441.5 649 L 425.5 650 L 424.5 649 L 295.5 649 L 294.5 650 L 288 650 L 312 610.5 L 312 608.5 L 319 599.5 L 380 497.5 L 385 491.5 L 387 485.5 L 406 456.5 L 409 449.5 L 456 373.5 L 479 333.5 L 490 317.5 L 496.5 311 L 505.5 307 Z M 511 325 L 506 329 L 470 386 L 437 443 L 427 457 L 425 463 L 419 471 L 415 480 L 412 483 L 395 513 L 321 630 L 322 631 L 383 631 L 492 451 L 514 417 L 537 395 L 552 387 L 551 382 L 536 359 L 520 330 Q 518 324 511 325 Z M 700 392 L 699 393 L 644 393 L 631 410 L 570 511 L 571 518 L 597 560 L 602 561 L 663 460 L 669 448 L 703 396 Q 705 390 700 392 Z M 592 393 Q 590 396 585 394 L 582 397 L 583 401 L 594 416 L 597 424 L 600 426 L 603 423 L 619 396 L 619 393 L 592 393 Z M 561 402 L 540 416 L 534 423 L 528 427 Q 527 432 523 435 L 523 438 L 528 447 L 556 491 Q 557 493 561 492 L 569 477 L 588 447 Q 589 441 586 439 L 583 436 L 565 404 Q 564 401 561 402 Z M 512 455 L 506 467 L 502 471 L 485 501 L 478 510 L 475 517 L 440 572 L 435 582 L 430 588 L 419 608 L 404 630 L 406 632 L 432 631 L 449 628 Q 471 621 487 607 L 505 584 L 547 515 L 543 504 L 514 457 Q 515 454 512 455 Z M 642 530 L 611 580 L 612 585 L 620 596 L 638 627 L 644 631 L 685 631 L 686 632 L 703 632 L 704 631 L 693 616 L 642 530 Z " /></svg>